<svg width="173px" height="35px" viewBox="0 0 173 35" version="1.1" xmlns="http://www.w3.org/2000/svg" xmlns:xlink="http://www.w3.org/1999/xlink">
    <g fill="#000000">
        <path d="M32.8599737,34.7723598 C32.3782275,34.5387859 30.0716855,32.5534079 29.3271687,31.7358994 C29.1227916,31.5169239 28.5242585,31.1227679 27.9841189,30.8453989 C25.881954,29.7797181 23.0644691,27.8965287 17.8820486,24.1155515 C17.4149008,23.7651907 16.9915482,23.5024201 16.9623515,23.5462152 C16.9331547,23.5754119 16.787171,24.2177401 16.626589,24.9622568 C16.34922,26.4074952 16.1448429,26.6994626 15.473318,26.6994626 C14.4952273,26.6848642 14.363842,25.9841426 14.9477767,23.7067972 C15.2835392,22.3491491 15.2981376,22.2615589 15.0499653,22.0863784 C14.91858,21.9841899 11.619349,19.6192543 7.7361832,16.8163678 C3.85301744,14.0280796 0.553786386,11.5755538 0.407802711,11.3711767 C0.0574418914,10.8894306 -0.117738519,10.0573236 0.130433729,10.0573236 C0.714368429,10.0573236 3.29827948,11.5317587 5.41504276,13.0937841 C7.60479789,14.6850061 15.6047033,20.3783695 15.9988592,20.6119433 C16.1010478,20.6849352 16.3784168,20.4221646 16.7287776,19.8966233 C17.0353433,19.4586723 17.341909,19.0061229 17.4149008,18.889336 C17.5024911,18.772549 17.4440976,18.5681719 17.2397204,18.3054013 C16.3930151,17.2251221 17.3127123,16.2616298 18.3491964,17.1375319 C18.5973686,17.341909 18.8163441,17.5024911 18.8601392,17.5024911 C18.9039343,17.5024911 19.327287,17.2397204 19.8236315,16.903958 C20.3783695,16.5389988 20.6703368,16.2470314 20.6119433,16.1448429 C20.4221646,15.8382772 16.3784168,10.1011187 13.8383008,6.53911706 C12.2032837,4.26177173 11.1522012,2.62675457 10.7142502,1.70705742 C10.349291,0.947942309 10.0573236,0.247220669 10.0573236,0.145032096 C10.0573236,-0.132336886 10.7142502,-0.0301483136 11.2397914,0.320212506 C11.502562,0.495392916 12.4514559,1.66326232 13.3273579,2.90412355 C14.20326,4.14498479 16.5973923,7.50260932 18.6411637,10.349291 C20.6849352,13.1959726 22.3637474,15.5463098 22.3783458,15.5609082 C22.3929442,15.5755065 22.8600919,15.4587196 23.4148299,15.2981376 C23.9695679,15.1521539 24.9330601,14.9769735 25.5607899,14.9331784 C26.5388805,14.8455882 26.7432577,14.8747849 26.9914299,15.0937604 C27.6045614,15.6484984 27.1374136,16.4806053 26.2177164,16.4806053 C25.8235605,16.4806053 23.6046087,16.903958 23.5170185,16.9915482 C23.4878217,17.0207449 24.6994862,18.772549 26.2177164,20.9039107 C28.7724308,24.451314 30.0862838,26.4804871 30.9329892,28.1592993 C31.1081696,28.5242585 31.9110798,29.4877508 32.6993916,30.3052593 C34.1738267,31.8380879 35.0205321,33.0789492 35.0205321,33.6920806 C35.0205321,34.1300316 34.1008349,35.0205321 33.6628839,35.0205321 C33.4877035,35.0205321 33.1227443,34.9037451 32.8599737,34.7723598 Z M27.8381352,27.0498234 C27.4877744,26.3345034 26.5826756,24.8308715 25.8235605,23.7067972 C22.8016985,19.2250984 21.8090095,17.8090568 21.6922225,17.7944584 C21.6192307,17.7944584 21.2542715,18.0134339 20.8455172,18.2616062 L20.1301972,18.7433523 L21.0790911,19.6922462 C22.188567,20.8163205 22.4367393,21.3272633 22.1009768,21.8236078 C21.6922225,22.4513376 21.1520829,22.2907556 19.882025,21.1666813 L18.7579507,20.1593939 L18.4075898,20.6119433 C18.2178111,20.8747139 17.9696388,21.2396731 17.8674502,21.4440503 C17.6776715,21.8236078 17.6776715,21.8236078 20.8747139,23.9987646 C22.6411164,25.2104291 24.5535026,26.4804871 25.1374373,26.8308479 C26.159323,27.4731761 28.3198814,28.4804634 28.4220699,28.3928732 C28.4366683,28.3636765 28.1884961,27.7651434 27.8381352,27.0498234 Z" id="Compass" fill-rule="nonzero" transform="translate(17.517314, 17.503219) rotate(270.000000) translate(-17.517314, -17.503219) "></path>
        <path d="M57.18,23.492 C56.9159987,23.888002 56.5970019,24.2619982 56.223,24.614 C55.8489981,24.9660018 55.4163358,25.2739987 54.925,25.538 C54.4336642,25.8020013 53.891003,26.0109992 53.297,26.165 C52.702997,26.3190008 52.0540035,26.396 51.35,26.396 C50.1766608,26.396 49.0913383,26.1906687 48.094,25.78 C47.0966617,25.3693313 46.2386703,24.8010036 45.52,24.075 C44.8013297,23.3489964 44.2403354,22.4873383 43.837,21.49 C43.4336646,20.4926617 43.232,19.4000059 43.232,18.212 C43.232,17.0239941 43.4373313,15.9313383 43.848,14.934 C44.2586687,13.9366617 44.8269964,13.0750036 45.553,12.349 C46.2790036,11.6229964 47.136995,11.0546687 48.127,10.644 C49.117005,10.2333313 50.1913275,10.028 51.35,10.028 C51.9220029,10.028 52.4829972,10.0866661 53.033,10.204 C53.5830027,10.3213339 54.0999976,10.4863323 54.584,10.699 C55.0680024,10.9116677 55.507998,11.1683318 55.904,11.469 C56.300002,11.7696682 56.6299987,12.1106648 56.894,12.492 L55.574,13.46 C55.4126659,13.2106654 55.1963347,12.9613346 54.925,12.712 C54.6536653,12.4626654 54.3346685,12.2426676 53.968,12.052 C53.6013315,11.8613324 53.2016688,11.7073339 52.769,11.59 C52.3363312,11.4726661 51.8706692,11.414 51.372,11.414 C50.3599949,11.414 49.4543373,11.5973315 48.655,11.964 C47.8556627,12.3306685 47.1773361,12.8256636 46.62,13.449 C46.0626639,14.0723364 45.6373348,14.7946626 45.344,15.616 C45.0506652,16.4373374 44.904,17.3026621 44.904,18.212 C44.904,19.1213379 45.0543318,19.9866626 45.355,20.808 C45.6556682,21.6293374 46.0846639,22.3516635 46.642,22.975 C47.1993361,23.5983364 47.8776627,24.0933315 48.677,24.46 C49.4763373,24.8266685 50.3746617,25.01 51.372,25.01 C52.2666711,25.01 53.1173293,24.8266685 53.924,24.46 C54.7306707,24.0933315 55.4053306,23.5066707 55.948,22.7 L57.18,23.492 Z M70.8859999,20.852 C70.8859999,21.6293372 70.7503346,22.3479967 70.4789999,23.008 C70.2076652,23.6680033 69.8300023,24.2399976 69.3459999,24.724 C68.8619975,25.2080024 68.2826699,25.5856653 67.6079999,25.857 C66.9333299,26.1283347 66.1926706,26.264 65.3859999,26.264 C64.5939959,26.264 63.8606699,26.1283347 63.1859999,25.857 C62.5113299,25.5856653 61.9320023,25.2080024 61.4479999,24.724 C60.9639975,24.2399976 60.5863346,23.6680033 60.3149999,23.008 C60.0436652,22.3479967 59.9079999,21.6293372 59.9079999,20.852 C59.9079999,20.0746628 60.0436652,19.3560033 60.3149999,18.696 C60.5863346,18.0359967 60.9639975,17.4640024 61.4479999,16.98 C61.9320023,16.4959976 62.5113299,16.1183347 63.1859999,15.847 C63.8606699,15.5756653 64.5939959,15.44 65.3859999,15.44 C66.1926706,15.44 66.9333299,15.5756653 67.6079999,15.847 C68.2826699,16.1183347 68.8619975,16.4959976 69.3459999,16.98 C69.8300023,17.4640024 70.2076652,18.0359967 70.4789999,18.696 C70.7503346,19.3560033 70.8859999,20.0746628 70.8859999,20.852 Z M69.3019999,20.852 C69.3019999,20.2799971 69.2103342,19.7410025 69.0269999,19.235 C68.8436657,18.7289975 68.5833349,18.2890019 68.2459999,17.915 C67.9086649,17.5409981 67.4980023,17.2440011 67.0139999,17.024 C66.5299975,16.8039989 65.9873362,16.694 65.3859999,16.694 C64.7846636,16.694 64.245669,16.8039989 63.7689999,17.024 C63.2923309,17.2440011 62.8853349,17.5409981 62.5479999,17.915 C62.2106649,18.2890019 61.9503342,18.7289975 61.7669999,19.235 C61.5836657,19.7410025 61.4919999,20.2799971 61.4919999,20.852 C61.4919999,21.4240029 61.5836657,21.9629975 61.7669999,22.469 C61.9503342,22.9750025 62.2106649,23.4149981 62.5479999,23.789 C62.8853349,24.1630019 63.2923309,24.4563323 63.7689999,24.669 C64.245669,24.8816677 64.7846636,24.988 65.3859999,24.988 C65.9873362,24.988 66.5299975,24.8816677 67.0139999,24.669 C67.4980023,24.4563323 67.9086649,24.1630019 68.2459999,23.789 C68.5833349,23.4149981 68.8436657,22.9750025 69.0269999,22.469 C69.2103342,21.9629975 69.3019999,21.4240029 69.3019999,20.852 Z M76.6719998,17.464 C76.9653346,16.8626637 77.4163301,16.3750019 78.0249998,16.001 C78.6336695,15.6269981 79.3119961,15.44 80.0599998,15.44 C80.3386679,15.44 80.6283316,15.469333 80.9289998,15.528 C81.229668,15.586667 81.5229984,15.7003325 81.8089998,15.869 C82.0950012,16.0376675 82.3589986,16.2613319 82.6009998,16.54 C82.843001,16.8186681 83.0519989,17.1779978 83.2279998,17.618 C83.5800016,16.9139965 84.0603301,16.3750019 84.6689998,16.001 C85.2776695,15.6269981 85.9999956,15.44 86.8359998,15.44 C88.1413397,15.44 89.1203299,15.8286628 89.7729998,16.606 C90.4256697,17.3833372 90.7519998,18.4099936 90.7519998,19.686 L90.7519998,26 L89.2559998,26 L89.2559998,20.302 C89.2559998,19.2166612 89.0543352,18.3440033 88.6509998,17.684 C88.2476645,17.0239967 87.5620046,16.694 86.5939998,16.694 C86.0513304,16.694 85.5930017,16.8039989 85.2189998,17.024 C84.8449979,17.2440011 84.5443343,17.5336649 84.3169998,17.893 C84.0896653,18.2523351 83.924667,18.6593311 83.8219998,19.114 C83.7193326,19.5686689 83.6679998,20.0379976 83.6679998,20.522 L83.6679998,26 L82.1719998,26 L82.1719998,19.994 C82.1719998,19.4953308 82.1353335,19.0406687 82.0619998,18.63 C81.9886661,18.2193313 81.8603341,17.8710014 81.6769998,17.585 C81.4936656,17.2989986 81.2406681,17.0790008 80.9179998,16.925 C80.5953315,16.7709992 80.184669,16.694 79.6859998,16.694 C79.333998,16.694 78.9783349,16.7746659 78.6189998,16.936 C78.2596647,17.0973341 77.9370012,17.3429984 77.6509998,17.673 C77.3649984,18.0030017 77.1340007,18.4209975 76.9579998,18.927 C76.7819989,19.4330025 76.6939998,20.0306632 76.6939998,20.72 L76.6939998,26 L75.1979998,26 L75.1979998,17.97 C75.1979998,17.6913319 75.1906665,17.3320022 75.1759998,16.892 C75.1613331,16.4519978 75.1393333,16.0560018 75.1099998,15.704 L76.5399998,15.704 C76.5693333,15.9826681 76.5913331,16.290665 76.6059998,16.628 C76.6206665,16.965335 76.6279998,17.2439989 76.6279998,17.464 L76.6719998,17.464 Z M97.2199997,31.28 L95.7239997,31.28 L95.7239997,15.704 L97.2199997,15.704 L97.2199997,17.486 L97.2859997,17.486 C97.7113352,16.81133 98.2796628,16.3016684 98.9909997,15.957 C99.7023366,15.6123316 100.424663,15.44 101.158,15.44 C101.96467,15.44 102.69433,15.5793319 103.347,15.858 C103.99967,16.1366681 104.556997,16.5179976 105.019,17.002 C105.481002,17.4860024 105.840332,18.0579967 106.097,18.718 C106.353668,19.3780033 106.482,20.0893295 106.482,20.852 C106.482,21.6146705 106.353668,22.3259967 106.097,22.986 C105.840332,23.6460033 105.481002,24.2179976 105.019,24.702 C104.556997,25.1860024 103.99967,25.5673319 103.347,25.846 C102.69433,26.1246681 101.96467,26.264 101.158,26.264 C100.424663,26.264 99.7023366,26.0916684 98.9909997,25.747 C98.2796628,25.4023316 97.7113352,24.9073366 97.2859997,24.262 L97.2199997,24.262 L97.2199997,31.28 Z M104.898,20.852 C104.898,20.2799971 104.810001,19.7410025 104.634,19.235 C104.457999,18.7289975 104.205001,18.2890019 103.875,17.915 C103.544998,17.5409981 103.138002,17.2440011 102.654,17.024 C102.169997,16.8039989 101.620003,16.694 101.004,16.694 C100.431997,16.694 99.9040021,16.8003323 99.4199997,17.013 C98.9359973,17.2256677 98.5180015,17.5189981 98.1659997,17.893 C97.813998,18.2670019 97.5390007,18.7069975 97.3409997,19.213 C97.1429987,19.7190025 97.0439997,20.2653304 97.0439997,20.852 C97.0439997,21.4386696 97.1429987,21.9849975 97.3409997,22.491 C97.5390007,22.9970025 97.813998,23.4333315 98.1659997,23.8 C98.5180015,24.1666685 98.9359973,24.4563323 99.4199997,24.669 C99.9040021,24.8816677 100.431997,24.988 101.004,24.988 C101.620003,24.988 102.169997,24.8816677 102.654,24.669 C103.138002,24.4563323 103.544998,24.1630019 103.875,23.789 C104.205001,23.4149981 104.457999,22.9750025 104.634,22.469 C104.810001,21.9629975 104.898,21.4240029 104.898,20.852 Z M117.284,19.356 C117.284,18.4613289 117.049335,17.7940022 116.58,17.354 C116.110664,16.9139978 115.428671,16.694 114.534,16.694 C113.917997,16.694 113.346002,16.8039989 112.818,17.024 C112.289997,17.2440011 111.842668,17.5373315 111.476,17.904 L110.64,16.914 C111.065335,16.4886645 111.626329,16.1366681 112.323,15.858 C113.01967,15.5793319 113.807995,15.44 114.688,15.44 C115.245336,15.44 115.765997,15.5169992 116.25,15.671 C116.734002,15.8250008 117.159331,16.0559985 117.526,16.364 C117.892668,16.6720015 118.178665,17.0606643 118.384,17.53 C118.589334,17.9993357 118.692,18.5493302 118.692,19.18 L118.692,23.69 C118.692,24.086002 118.706666,24.4966645 118.736,24.922 C118.765333,25.3473355 118.809333,25.7066652 118.868,26 L117.526,26 C117.481999,25.7506654 117.445333,25.4793348 117.416,25.186 C117.386666,24.8926652 117.372,24.6066681 117.372,24.328 L117.328,24.328 C116.858664,25.0173368 116.327003,25.5123318 115.733,25.813 C115.138997,26.1136682 114.424004,26.264 113.588,26.264 C113.191998,26.264 112.785002,26.2090005 112.367,26.099 C111.948998,25.9889995 111.567668,25.8093346 111.223,25.56 C110.878331,25.3106654 110.592334,24.988002 110.365,24.592 C110.137665,24.195998 110.024,23.7120029 110.024,23.14 C110.024,22.347996 110.225664,21.7210023 110.629,21.259 C111.032335,20.7969977 111.57133,20.4523345 112.246,20.225 C112.92067,19.9976655 113.694329,19.8510003 114.567,19.785 C115.439671,19.7189997 116.345328,19.686 117.284,19.686 L117.284,19.356 Z M116.844,20.852 C116.227997,20.852 115.608336,20.8776664 114.985,20.929 C114.361663,20.9803336 113.797002,21.0829992 113.291,21.237 C112.784997,21.3910008 112.370668,21.6146652 112.048,21.908 C111.725331,22.2013348 111.564,22.5899976 111.564,23.074 C111.564,23.4406685 111.633666,23.7486654 111.773,23.998 C111.912334,24.2473346 112.099332,24.4489992 112.334,24.603 C112.568667,24.7570008 112.828998,24.8669997 113.115,24.933 C113.401001,24.9990003 113.690665,25.032 113.984,25.032 C114.512002,25.032 114.981331,24.9403342 115.392,24.757 C115.802668,24.5736657 116.147332,24.3243349 116.426,24.009 C116.704668,23.6936651 116.917332,23.3306687 117.064,22.92 C117.210667,22.5093313 117.284,22.0766689 117.284,21.622 L117.284,20.852 L116.844,20.852 Z M129.12,18.146 C128.899998,17.7206645 128.566335,17.3723347 128.119,17.101 C127.671664,16.8296653 127.162002,16.694 126.59,16.694 C126.325998,16.694 126.062001,16.723333 125.798,16.782 C125.533998,16.840667 125.299334,16.9359993 125.094,17.068 C124.888665,17.2000007 124.723667,17.3686656 124.599,17.574 C124.474332,17.7793344 124.412,18.0213319 124.412,18.3 C124.412,18.7840024 124.609998,19.1543321 125.006,19.411 C125.402002,19.667668 126.025329,19.8839991 126.876,20.06 C128.093339,20.3093346 128.991663,20.672331 129.571,21.149 C130.150336,21.625669 130.44,22.2673293 130.44,23.074 C130.44,23.6606696 130.326334,24.1556647 130.099,24.559 C129.871665,24.9623354 129.574668,25.292332 129.208,25.549 C128.841331,25.805668 128.427002,25.9889995 127.965,26.099 C127.502997,26.2090005 127.037335,26.264 126.568,26.264 C125.790662,26.264 125.035337,26.1026683 124.302,25.78 C123.568663,25.4573317 122.967335,24.9513368 122.498,24.262 L123.686,23.382 C123.950001,23.8366689 124.338664,24.2179985 124.852,24.526 C125.365335,24.8340015 125.929996,24.988 126.546,24.988 C126.868668,24.988 127.176665,24.958667 127.47,24.9 C127.763334,24.841333 128.019998,24.7386674 128.24,24.592 C128.460001,24.4453326 128.635999,24.2583345 128.768,24.031 C128.9,23.8036655 128.966,23.521335 128.966,23.184 C128.966,22.6413306 128.705669,22.2343347 128.185,21.963 C127.66433,21.6916653 126.912671,21.4386678 125.93,21.204 C125.621998,21.1306663 125.295668,21.0390006 124.951,20.929 C124.606331,20.8189994 124.287334,20.6576677 123.994,20.445 C123.700665,20.2323323 123.458667,19.9646683 123.268,19.642 C123.077332,19.3193317 122.982,18.9160024 122.982,18.432 C122.982,17.9039974 123.084665,17.4530019 123.29,17.079 C123.495334,16.7049981 123.770331,16.3970012 124.115,16.155 C124.459668,15.9129988 124.851997,15.7333339 125.292,15.616 C125.732002,15.4986661 126.186664,15.44 126.656,15.44 C127.37467,15.44 128.071329,15.6013317 128.746,15.924 C129.42067,16.2466683 129.926665,16.7013304 130.264,17.288 L129.12,18.146 Z M139.987999,18.146 C139.767998,17.7206645 139.434335,17.3723347 138.986999,17.101 C138.539664,16.8296653 138.030002,16.694 137.457999,16.694 C137.193998,16.694 136.930001,16.723333 136.665999,16.782 C136.401998,16.840667 136.167334,16.9359993 135.961999,17.068 C135.756665,17.2000007 135.591667,17.3686656 135.466999,17.574 C135.342332,17.7793344 135.279999,18.0213319 135.279999,18.3 C135.279999,18.7840024 135.477997,19.1543321 135.873999,19.411 C136.270001,19.667668 136.893329,19.8839991 137.743999,20.06 C138.961339,20.3093346 139.859663,20.672331 140.438999,21.149 C141.018336,21.625669 141.307999,22.2673293 141.307999,23.074 C141.307999,23.6606696 141.194334,24.1556647 140.966999,24.559 C140.739665,24.9623354 140.442668,25.292332 140.075999,25.549 C139.709331,25.805668 139.295002,25.9889995 138.832999,26.099 C138.370997,26.2090005 137.905335,26.264 137.435999,26.264 C136.658662,26.264 135.903336,26.1026683 135.169999,25.78 C134.436662,25.4573317 133.835335,24.9513368 133.365999,24.262 L134.553999,23.382 C134.818001,23.8366689 135.206664,24.2179985 135.719999,24.526 C136.233335,24.8340015 136.797996,24.988 137.413999,24.988 C137.736668,24.988 138.044665,24.958667 138.337999,24.9 C138.631334,24.841333 138.887998,24.7386674 139.107999,24.592 C139.328001,24.4453326 139.503999,24.2583345 139.635999,24.031 C139.768,23.8036655 139.833999,23.521335 139.833999,23.184 C139.833999,22.6413306 139.573669,22.2343347 139.052999,21.963 C138.53233,21.6916653 137.780671,21.4386678 136.797999,21.204 C136.489998,21.1306663 136.163668,21.0390006 135.818999,20.929 C135.474331,20.8189994 135.155334,20.6576677 134.861999,20.445 C134.568665,20.2323323 134.326667,19.9646683 134.135999,19.642 C133.945332,19.3193317 133.849999,18.9160024 133.849999,18.432 C133.849999,17.9039974 133.952665,17.4530019 134.157999,17.079 C134.363334,16.7049981 134.638331,16.3970012 134.982999,16.155 C135.327668,15.9129988 135.719997,15.7333339 136.159999,15.616 C136.600002,15.4986661 137.054664,15.44 137.523999,15.44 C138.24267,15.44 138.939329,15.6013317 139.613999,15.924 C140.288669,16.2466683 140.794664,16.7013304 141.131999,17.288 L139.987999,18.146 Z M164.803999,20.126 C164.803999,21.0646714 164.646334,21.9189962 164.330999,22.689 C164.015664,23.4590039 163.564669,24.1189972 162.977999,24.669 C162.39133,25.2190028 161.68367,25.6479985 160.854999,25.956 C160.026328,26.2640015 159.106004,26.418 158.093999,26.418 C157.067327,26.418 156.143337,26.2640015 155.321999,25.956 C154.500662,25.6479985 153.804002,25.2190028 153.231999,24.669 C152.659996,24.1189972 152.220001,23.4590039 151.911999,22.689 C151.603998,21.9189962 151.449999,21.0646714 151.449999,20.126 L151.449999,10.424 L155.189999,10.424 L155.189999,19.818 C155.189999,20.2433355 155.244999,20.6466648 155.354999,21.028 C155.465,21.4093352 155.633665,21.7503318 155.860999,22.051 C156.088334,22.3516682 156.388997,22.5899991 156.762999,22.766 C157.137001,22.9420009 157.587997,23.03 158.115999,23.03 C158.644002,23.03 159.094997,22.9420009 159.468999,22.766 C159.843001,22.5899991 160.147331,22.3516682 160.381999,22.051 C160.616667,21.7503318 160.785332,21.4093352 160.887999,21.028 C160.990666,20.6466648 161.041999,20.2433355 161.041999,19.818 L161.041999,10.424 L164.803999,10.424 L164.803999,20.126 Z M168.939999,26 L168.939999,10.424 L172.723999,10.424 L172.723999,26 L168.939999,26 Z" id="Compass-UI"></path>
    </g>
</svg>
